#!OML:ASF X:\für Bonn\!DataBase\2005_08_10_Bjorn_Final\c3d\bjorn.ASF
:FULLY-SPECIFIED
:DEGREES
726
root -0.346873 1.31642 23.8761 -469.895 -178.737 367.783
lowerback 23.1223 1.08366 -0.117393
upperback 7.66931 -0.101043 -4.24093
thorax -4.48105 -0.61108 -4.45411
lowerneck -14.384 -6.01192 -1.36663
upperneck -2.10037 -8.67815 6.88815
head 2.20843 -4.3629 1.90061
rclavicle 4.92986e-014 -7.40473e-014
rhumerus -213.335 -159.117 121.798
rradius -0.202015
rwrist 46.1023
rhand -11.1115 0.307781
rfingers 7.12502
rthumb 14.9131 -29.1354
lclavicle 4.92986e-014 -7.40473e-014
lhumerus -385.049 -1.77742 -303.611
lradius 9.59884
lwrist -69.3998
lhand -6.39785 -9.61815
lfingers 7.12502
lthumb 19.4499 19.4291
rfemur -25.6194 -16.8046 -12.1285
rtibia 109.426
rfoot 36.3993 12.7609
rtoes -0.719042
lfemur -36.8709 -4.42329 -0.123225
ltibia 119.356
lfoot 30.2955 -9.55616
ltoes 4.77441
727
root -0.345748 1.31636 23.8759 -469.921 -178.753 367.801
lowerback 23.1415 1.08285 -0.131483
upperback 7.67581 -0.105655 -4.22903
thorax -4.48417 -0.614009 -4.43195
lowerneck -14.3041 -5.99307 -1.33512
upperneck -2.16909 -8.65547 6.8784
head 2.1675 -4.35547 1.89671
rclavicle 4.13472e-014 -4.50247e-014
rhumerus -213.417 -159.033 121.914
rradius -0.0790605
rwrist 46.3549
rhand -10.9918 0.351823
rfingers 7.12502
rthumb 15.0284 -29.0828
lclavicle 4.13472e-014 -4.50247e-014
lhumerus -385.006 -0.380661 -304.315
lradius 9.66809
lwrist -70.5043
lhand -6.42677 -9.65309
lfingers 7.12502
lthumb 19.4221 19.3969
rfemur -25.5916 -16.7831 -12.0986
rtibia 109.435
rfoot 36.3664 12.7795
rtoes -0.843492
lfemur -36.8586 -4.4148 -0.0886714
ltibia 119.351
lfoot 30.3081 -9.59052
ltoes 4.76193
728
root -0.345897 1.31683 23.8767 -469.932 -178.748 367.807
lowerback 23.1272 1.08308 -0.147611
upperback 7.70013 -0.109831 -4.22248
thorax -4.45095 -0.617177 -4.41393
lowerneck -14.3163 -5.98324 -1.32783
upperneck -2.19127 -8.6427 6.86617
head 2.16048 -4.35002 1.89231
rclavicle -3.18055e-014 3.57812e-015
rhumerus -213.389 -158.912 121.979
rradius -0.0777304
rwrist 46.5621
rhand -10.979 0.326164
rfingers 7.12502
rthumb 15.0407 -29.1075
lclavicle -3.18055e-014 3.57812e-015
lhumerus -384.932 1.04683 -305.018
lradius 9.70115
lwrist -71.5352
lhand -6.50391 -9.65991
lfingers 7.12502
lthumb 19.3479 19.3976
rfemur -25.5705 -16.7434 -12.0866
rtibia 109.423
rfoot 36.3587 12.7491
rtoes -0.825118
lfemur -36.8402 -4.41257 -0.0976133
ltibia 119.343
lfoot 30.3061 -9.59255
ltoes 4.75528
729
root -0.346465 1.31682 23.8777 -469.941 -178.751 367.815
lowerback 23.124 1.08099 -0.13763
upperback 7.70707 -0.112342 -4.23618
thorax -4.44184 -0.618862 -4.43392
lowerneck -14.2674 -5.97113 -1.27903
upperneck -2.23144 -8.63426 6.85937
head 2.13469 -4.34882 1.88409
rclavicle -1.43125e-014 5.36719e-015
rhumerus -213.466 -158.789 122.048
rradius -0.00195909
rwrist 46.808
rhand -10.944 0.334565
rfingers 7.12502
rthumb 15.0744 -29.0966
lclavicle -1.43125e-014 5.36719e-015
lhumerus -384.894 2.42447 -305.759
lradius 9.77312
lwrist -72.5923
lhand -6.59455 -9.72504
lfingers 7.12502
lthumb 19.2607 19.3412
rfemur -25.5553 -16.7035 -12.0622
rtibia 109.412
rfoot 36.3654 12.7136
rtoes -0.752606
lfemur -36.8343 -4.39804 -0.0934871
ltibia 119.337
lfoot 30.3113 -9.6036
ltoes 4.74344
